<mxfile host="app.diagrams.net" modified="2022-05-30T20:09:20.281Z" agent="5.0 (Macintosh; Intel Mac OS X 10_15_7) AppleWebKit/537.36 (KHTML, like Gecko) Chrome/102.0.5005.61 Safari/537.36" etag="Zkio7YW2h1o59IJQxjAD" version="18.1.2" type="github">
  <diagram id="AvX04__qSgGKg3P639D8" name="Page-1">
    <mxGraphModel dx="946" dy="646" grid="1" gridSize="10" guides="1" tooltips="1" connect="1" arrows="1" fold="1" page="1" pageScale="1" pageWidth="827" pageHeight="1169" math="0" shadow="0">
      <root>
        <mxCell id="0" />
        <mxCell id="1" parent="0" />
        <mxCell id="4xD7s_jJa2JttrYRMBzY-1" value="&lt;font style=&quot;font-size: 18px;&quot;&gt;&lt;b&gt;Входная матрица&lt;/b&gt;&lt;/font&gt;" style="rounded=0;whiteSpace=wrap;html=1;" vertex="1" parent="1">
          <mxGeometry x="320" y="100" width="190" height="60" as="geometry" />
        </mxCell>
        <mxCell id="4xD7s_jJa2JttrYRMBzY-2" value="" style="endArrow=blockThin;html=1;rounded=0;endSize=6;strokeWidth=4;fillColor=#39434D;endFill=1;" edge="1" parent="1">
          <mxGeometry width="50" height="50" relative="1" as="geometry">
            <mxPoint x="414.5" y="160" as="sourcePoint" />
            <mxPoint x="414.5" y="197" as="targetPoint" />
          </mxGeometry>
        </mxCell>
        <mxCell id="4xD7s_jJa2JttrYRMBzY-3" value="&lt;b&gt;GAT/GCN Layer&lt;/b&gt;" style="rounded=1;whiteSpace=wrap;html=1;fontSize=18;" vertex="1" parent="1">
          <mxGeometry x="320" y="200" width="190" height="60" as="geometry" />
        </mxCell>
        <mxCell id="4xD7s_jJa2JttrYRMBzY-4" value="" style="endArrow=blockThin;html=1;rounded=0;endSize=6;strokeWidth=4;fillColor=#39434D;endFill=1;" edge="1" parent="1">
          <mxGeometry width="50" height="50" relative="1" as="geometry">
            <mxPoint x="414.5" y="260" as="sourcePoint" />
            <mxPoint x="414.5" y="297" as="targetPoint" />
          </mxGeometry>
        </mxCell>
        <mxCell id="4xD7s_jJa2JttrYRMBzY-5" value="&lt;b&gt;ReLU&lt;/b&gt;" style="rounded=1;whiteSpace=wrap;html=1;fontSize=18;" vertex="1" parent="1">
          <mxGeometry x="320" y="300" width="190" height="60" as="geometry" />
        </mxCell>
        <mxCell id="4xD7s_jJa2JttrYRMBzY-6" value="" style="endArrow=blockThin;html=1;rounded=0;endSize=6;strokeWidth=4;fillColor=#39434D;endFill=1;" edge="1" parent="1">
          <mxGeometry width="50" height="50" relative="1" as="geometry">
            <mxPoint x="414.5" y="360" as="sourcePoint" />
            <mxPoint x="414.5" y="397" as="targetPoint" />
          </mxGeometry>
        </mxCell>
        <mxCell id="4xD7s_jJa2JttrYRMBzY-10" value="" style="shape=curlyBracket;whiteSpace=wrap;html=1;rounded=1;fontSize=18;" vertex="1" parent="1">
          <mxGeometry x="290" y="210" width="20" height="140" as="geometry" />
        </mxCell>
        <mxCell id="4xD7s_jJa2JttrYRMBzY-11" value="&lt;span style=&quot;font-weight: normal;&quot;&gt;3&lt;/span&gt;" style="text;strokeColor=none;fillColor=none;html=1;fontSize=24;fontStyle=1;verticalAlign=middle;align=center;" vertex="1" parent="1">
          <mxGeometry x="270" y="260" width="20" height="40" as="geometry" />
        </mxCell>
        <mxCell id="4xD7s_jJa2JttrYRMBzY-12" value="&lt;font style=&quot;font-size: 12px;&quot;&gt;Количество&lt;br&gt;вершин&lt;/font&gt;" style="text;html=1;strokeColor=none;fillColor=none;align=center;verticalAlign=middle;whiteSpace=wrap;rounded=0;fontSize=14;rotation=-90;" vertex="1" parent="1">
          <mxGeometry x="260" y="115" width="80" height="30" as="geometry" />
        </mxCell>
        <mxCell id="4xD7s_jJa2JttrYRMBzY-13" value="&lt;span style=&quot;font-size: 12px;&quot;&gt;Размер признаков&lt;/span&gt;" style="text;html=1;strokeColor=none;fillColor=none;align=center;verticalAlign=middle;whiteSpace=wrap;rounded=0;fontSize=14;rotation=0;" vertex="1" parent="1">
          <mxGeometry x="375" y="60" width="80" height="30" as="geometry" />
        </mxCell>
        <mxCell id="4xD7s_jJa2JttrYRMBzY-14" value="&lt;span style=&quot;font-size: 18px;&quot;&gt;&lt;b&gt;Выходные вероятности&lt;/b&gt;&lt;/span&gt;" style="rounded=0;whiteSpace=wrap;html=1;" vertex="1" parent="1">
          <mxGeometry x="320" y="400" width="190" height="60" as="geometry" />
        </mxCell>
        <mxCell id="4xD7s_jJa2JttrYRMBzY-15" value="&lt;font style=&quot;font-size: 12px;&quot;&gt;Количество&lt;br&gt;вершин&lt;/font&gt;" style="text;html=1;strokeColor=none;fillColor=none;align=center;verticalAlign=middle;whiteSpace=wrap;rounded=0;fontSize=14;rotation=-90;" vertex="1" parent="1">
          <mxGeometry x="260" y="415" width="80" height="30" as="geometry" />
        </mxCell>
        <mxCell id="4xD7s_jJa2JttrYRMBzY-16" value="&lt;span style=&quot;font-size: 12px;&quot;&gt;Количество&lt;br&gt;классов&lt;br&gt;&lt;/span&gt;" style="text;html=1;strokeColor=none;fillColor=none;align=center;verticalAlign=middle;whiteSpace=wrap;rounded=0;fontSize=14;rotation=0;" vertex="1" parent="1">
          <mxGeometry x="374" y="470" width="80" height="30" as="geometry" />
        </mxCell>
      </root>
    </mxGraphModel>
  </diagram>
</mxfile>
